<svg width="85" height="85" viewBox="0 0 85 85" fill="none" xmlns="http://www.w3.org/2000/svg">
<path d="M14.47 67.2889V46.2889H30.61V50.0689H18.82V54.8689H26.59V58.5289H18.82V63.5089H30.73V67.2889H14.47ZM39.5359 67.2889V50.1289H32.4559V46.2889H50.9359V50.1289H43.8859V67.2889H39.5359ZM61.1692 67.5889C59.4692 67.5889 57.8092 67.2789 56.1892 66.6589C54.5692 66.0189 53.1292 65.1189 51.8692 63.9589L54.3592 60.8389C55.5792 61.9189 56.7492 62.6989 57.8692 63.1789C59.0092 63.6589 60.2092 63.8989 61.4692 63.8989C62.3492 63.8989 63.1092 63.7989 63.7492 63.5989C64.3892 63.3789 64.8792 63.0689 65.2192 62.6689C65.5792 62.2689 65.7592 61.7989 65.7592 61.2589C65.7592 60.5389 65.4992 59.9889 64.9792 59.6089C64.4592 59.2089 63.5692 58.8989 62.3092 58.6789L58.1392 57.9589C56.3592 57.6589 54.9992 57.0289 54.0592 56.0689C53.1392 55.1089 52.6792 53.8689 52.6792 52.3489C52.6792 51.0489 53.0092 49.9189 53.6692 48.9589C54.3492 47.9989 55.2992 47.2689 56.5192 46.7689C57.7592 46.2489 59.2292 45.9889 60.9292 45.9889C62.4692 45.9889 63.9992 46.2489 65.5192 46.7689C67.0592 47.2889 68.4192 48.0089 69.5992 48.9289L67.2592 52.1689C65.0592 50.4889 62.8492 49.6489 60.6292 49.6489C59.8492 49.6489 59.1692 49.7489 58.5892 49.9489C58.0092 50.1489 57.5592 50.4289 57.2392 50.7889C56.9392 51.1289 56.7892 51.5389 56.7892 52.0189C56.7892 52.6589 57.0192 53.1589 57.4792 53.5189C57.9392 53.8589 58.7092 54.1189 59.7892 54.2989L63.7492 54.9589C65.8492 55.2989 67.4192 55.9689 68.4592 56.9689C69.4992 57.9489 70.0192 59.2489 70.0192 60.8689C70.0192 62.2289 69.6592 63.4189 68.9392 64.4389C68.2192 65.4389 67.1892 66.2189 65.8492 66.7789C64.5292 67.3189 62.9692 67.5889 61.1692 67.5889Z" fill="#416601"/>
<path d="M45.0628 39.3994H31.7197V37.6069H45.0523C47.1295 37.6052 49.0094 36.7478 50.3693 35.3628L58.6776 26.9181C59.1614 26.4285 59.4608 25.751 59.4608 25.0024C59.4608 24.9896 59.4608 24.9769 59.4605 24.9642V24.9661V24.9374C59.4608 24.9243 59.4609 24.9089 59.4609 24.8934C59.4609 23.4084 58.2766 22.2046 56.8156 22.2046C56.0615 22.2046 55.3811 22.5253 54.8993 23.0398L54.8982 23.0409L45.5355 32.5574H43.5708V30.7649H43.5902C44.9497 30.7593 46.0496 29.6379 46.0496 28.2554C46.0496 28.1117 46.0377 27.9708 46.0149 27.8337L46.0169 27.8485C45.7507 26.6271 44.6944 25.7273 43.4312 25.7273C43.4103 25.7273 43.3894 25.7275 43.3685 25.728L43.3716 25.7279H36.5572L34.7319 24.8102C33.7778 24.3179 32.6515 24.0295 31.4589 24.0295C29.7112 24.0295 28.1057 24.6489 26.8435 25.6836L26.8576 25.6724C25.237 27.0228 24.2113 29.0577 24.2113 31.3361C24.2113 31.3766 24.2117 31.4171 24.2123 31.4575L24.2122 31.4514V31.6593H22.4487V31.4693C22.4481 31.4305 22.4478 31.3846 22.4478 31.3387C22.4478 28.4973 23.7296 25.9603 25.7376 24.2925L25.7536 24.2796C27.3026 23.0076 29.2959 22.2377 31.4661 22.2377C32.9438 22.2377 34.3395 22.5947 35.5742 23.2284L35.522 23.2041L36.9752 23.9354H43.3558C43.3804 23.935 43.4094 23.9347 43.4385 23.9347C45.554 23.9347 47.3215 25.4491 47.7489 27.4696L47.7542 27.499V27.5313C47.7659 27.6018 47.7759 27.6717 47.7841 27.741L53.6232 21.7988C54.4275 20.9437 55.5588 20.4121 56.8121 20.4121C59.2471 20.4121 61.2211 22.4184 61.2211 24.8934C61.2211 24.9146 61.2209 24.9357 61.2207 24.9569V24.9537C61.2208 24.9648 61.2209 24.9781 61.2209 24.9913C61.2209 26.237 60.7233 27.3646 59.9193 28.1801L51.6145 36.6211C49.9385 38.3296 47.6234 39.3897 45.0647 39.3994H45.0629L45.0628 39.3994ZM43.4827 32.552H35.0881V30.7595H43.4827V32.552ZM29.1626 0H33.3951C38.5256 0.00615615 42.6831 4.23182 42.6892 9.44596V10.3428H38.4388C33.3167 10.3245 29.1705 6.10387 29.1625 0.89699V0.896221L29.1626 0ZM40.8744 8.55028C40.4133 4.72847 37.2417 1.79721 33.3956 1.79252H30.9773C31.4391 5.6081 34.6013 8.53551 38.4392 8.55032H38.4407L40.8744 8.55028ZM45.1757 12.0457H40.9255V11.1494C40.9316 5.93469 45.089 1.70899 50.2189 1.70283H54.4697V2.59913C54.4637 7.81385 50.3062 12.0396 45.1763 12.0457H45.1757ZM42.7402 10.2532H45.1757C49.0223 10.2485 52.1939 7.31717 52.6513 3.53248L52.6549 3.49539H50.2194C46.3728 3.50001 43.2012 6.43133 42.7438 10.216L42.7402 10.2531L42.7402 10.2532ZM42.689 24.8263H40.9255V9.4465H42.6891L42.689 24.8263Z" fill="#416601"/>
<path d="M84.3674 71.5015C84.5335 71.2072 84.3076 70.841 83.9741 70.8494C82.4448 70.8793 80.9582 70.0851 80.0238 68.6605L78.8446 66.863C77.2822 64.4813 74.3036 63.708 72.1946 65.1365C72.0553 65.2308 71.9338 65.3391 71.8088 65.4465C73.6585 66.2641 75.7879 67.8106 77.7129 70.745C77.8426 70.9428 77.8055 71.2016 77.6304 71.3202C77.4553 71.4388 77.2059 71.374 77.0762 71.1763C73.3707 65.5276 68.7335 65.2091 67.2337 65.4592C66.8121 65.5305 66.557 65.9565 66.6639 66.413C66.7704 66.8731 67.2017 67.1846 67.6243 67.1191C67.718 67.1042 68.8853 66.9431 70.4866 67.5136C70.0907 68.8332 70.165 70.782 71.5285 72.4838C74.0694 75.8578 78.4995 76.4431 81.9296 74.1198C82.9284 73.4433 83.8038 72.4998 84.3674 71.5015Z" fill="#416601"/>
<path d="M0.791955 35.4884C0.94077 35.1847 1.36596 35.1725 1.544 35.4592C2.3678 36.7689 3.84267 37.5853 5.52747 37.5853H7.6534C10.4703 37.5853 12.7556 39.6748 12.7556 42.2504C12.7556 42.4204 12.7344 42.5832 12.7158 42.7485C11.0203 41.6381 8.57287 40.6953 5.10228 40.6953C4.86843 40.6953 4.6771 40.8703 4.6771 41.0841C4.6771 41.2979 4.86843 41.4728 5.10228 41.4728C11.783 41.4728 14.6158 45.2171 15.243 46.6239C15.4184 47.0199 15.2111 47.4719 14.7779 47.6347C14.3421 47.7999 13.8478 47.6079 13.6671 47.2143C13.6273 47.1268 13.1117 46.0505 11.7564 45.013C10.8954 46.0796 9.25848 47.0977 7.10863 46.8887C2.93649 46.6117 4.57764e-05 43.1907 4.57764e-05 39.0018C4.57764e-05 37.7821 0.287046 36.5186 0.791955 35.4884Z" fill="#416601"/>
<path d="M32.0575 83.9607C31.8141 84.1931 31.4112 84.0544 31.3422 83.7227C31.0172 82.2039 29.913 80.918 28.3331 80.3235L26.3394 79.5735C23.6978 78.5796 22.2686 75.8137 23.1487 73.3984C23.2068 73.2389 23.2823 73.0937 23.3562 72.9454C24.5668 74.5849 26.5398 76.3325 29.7945 77.557C30.0138 77.6395 30.253 77.5429 30.3261 77.3424C30.3991 77.1419 30.2795 76.9103 30.0602 76.8278C23.7951 74.4707 22.4179 69.9599 22.3105 68.4194C22.2813 67.9861 22.6302 67.6354 23.092 67.6356C23.5571 67.6344 23.9551 67.9888 23.99 68.4217C23.9975 68.5178 24.1132 69.7091 25.0297 71.1602C26.2016 70.4637 28.0846 70.0865 30.0293 71.041C33.8472 72.7728 35.432 77.0171 34.0006 80.9453C33.5838 82.0892 32.883 83.1728 32.0575 83.9607Z" fill="#416601"/>
<path d="M60.0027 33.6345C60.2178 33.4587 60.5288 33.5992 60.5554 33.8773C60.6846 35.151 61.4585 36.2832 62.6735 36.876L64.2067 37.6241C66.2381 38.6152 67.1445 40.9891 66.2303 42.9239C66.1699 43.0517 66.0968 43.1665 66.0247 43.2841C65.1962 41.8534 63.7658 40.284 61.2629 39.0628C61.0942 38.9805 60.8942 39.0446 60.8183 39.2052C60.7424 39.3658 60.8182 39.5646 60.9869 39.6469C65.8049 41.9976 66.5187 45.8071 66.4716 47.0846C66.4575 47.4439 66.1476 47.7104 65.7774 47.6803C65.4045 47.6511 65.1162 47.333 65.1256 46.9737C65.1279 46.894 65.1382 45.904 64.5291 44.6477C63.5295 45.146 61.9876 45.3348 60.5113 44.4214C57.6008 42.7452 56.6975 39.142 58.1844 35.9952C58.6174 35.079 59.2729 34.2308 60.0027 33.6345Z" fill="#416601"/>
</svg>
