<svg width="39" height="37" viewBox="0 0 39 37" fill="none" xmlns="http://www.w3.org/2000/svg">
<path d="M22.7473 37H9.32618V35.3166H22.7367C24.8261 35.3151 26.7169 34.5099 28.0848 33.2092L36.4416 25.2788C36.9283 24.819 37.2294 24.1828 37.2294 23.4798C37.2294 23.4678 37.2294 23.4558 37.2292 23.4439V23.4457V23.4187C37.2295 23.4065 37.2296 23.3919 37.2296 23.3774C37.2296 21.9828 36.0383 20.8523 34.5688 20.8523C33.8103 20.8523 33.1259 21.1535 32.6412 21.6367L32.6402 21.6378L23.2227 30.5746H21.2465V28.8913H21.2661C22.6335 28.8861 23.7398 27.833 23.7398 26.5346C23.7398 26.3997 23.7279 26.2674 23.7049 26.1386L23.707 26.1525C23.4392 25.0055 22.3767 24.1605 21.1061 24.1605C21.0851 24.1605 21.064 24.1607 21.0431 24.1612L21.0462 24.1611H14.1919L12.356 23.2992C11.3963 22.8369 10.2634 22.5661 9.06383 22.5661C7.30586 22.5661 5.69106 23.1478 4.42142 24.1194L4.43558 24.1089C2.80559 25.3771 1.77385 27.2881 1.77385 29.4277C1.77385 29.4658 1.77423 29.5038 1.77484 29.5417L1.77476 29.536V29.7313H0.000913823V29.5529C0.000304608 29.5164 0 29.4733 0 29.4301C0 26.7619 1.28933 24.3793 3.30907 22.813L3.32517 22.801C4.88324 21.6064 6.88821 20.8834 9.07107 20.8834C10.5574 20.8834 11.9613 21.2187 13.2032 21.8138L13.1507 21.791L14.6123 22.4778H21.0303C21.055 22.4773 21.0842 22.477 21.1134 22.477C23.2413 22.477 25.0192 23.8992 25.449 25.7967L25.4544 25.8243V25.8547C25.4662 25.9209 25.4762 25.9865 25.4844 26.0516L31.3578 20.4712C32.1668 19.6682 33.3046 19.169 34.5653 19.169C37.0145 19.169 39 21.0531 39 23.3774C39 23.3973 38.9999 23.4171 38.9996 23.437V23.434C38.9998 23.4445 38.9998 23.4569 38.9998 23.4693C38.9998 24.6392 38.4994 25.6981 37.6906 26.4639L29.3373 34.3909C27.6515 35.9953 25.3228 36.9909 22.7492 37H22.7474L22.7473 37ZM21.1579 30.5696H12.7143V28.8862H21.1579V30.5696ZM6.75407 0H11.0113C16.1719 0.00578124 20.3537 3.9741 20.3598 8.87071V9.71296H16.0846C10.9325 9.69572 6.76206 5.73214 6.75399 0.842363V0.841641L6.75407 0ZM18.5344 8.02957C18.0706 4.4405 14.8805 1.68776 11.0118 1.68335H8.57943C9.04396 5.26657 12.2246 8.0157 16.085 8.02961H16.0865L18.5344 8.02957ZM22.8608 11.3121H18.5858V10.4704C18.5919 5.57326 22.7736 1.60491 27.9336 1.59913H32.2092V2.44084C32.2031 7.33799 28.0214 11.3064 22.8614 11.3121H22.8608ZM20.4111 9.62873H22.8608C26.7299 9.62433 29.9201 6.87155 30.3801 3.31735L30.3838 3.28252H27.9341C24.0649 3.28685 20.8748 6.03967 20.4147 9.59383L20.411 9.6287L20.4111 9.62873ZM20.3596 23.3144H18.5858V8.87121H20.3597L20.3596 23.3144Z" fill="#416601"/>
</svg>
